<?xml version="1.0" encoding="UTF-8" standalone="no"?>
<svg width="24px" height="24px" viewBox="0 0 24 24" version="1.1" xmlns="http://www.w3.org/2000/svg" xmlns:xlink="http://www.w3.org/1999/xlink">
    <!-- Generator: sketchtool 39.1 (31720) - http://www.bohemiancoding.com/sketch -->
    <title>1D7D05AD-BF3A-4136-80A1-99C84A11A3D8</title>
    <desc>Created with sketchtool.</desc>
    <defs>
        <rect id="path-1" x="0" y="0" width="360" height="80"></rect>
        <filter x="-50%" y="-50%" width="200%" height="200%" filterUnits="objectBoundingBox" id="filter-2">
            <feOffset dx="0" dy="1" in="SourceAlpha" result="shadowOffsetOuter1"></feOffset>
            <feGaussianBlur stdDeviation="0.5" in="shadowOffsetOuter1" result="shadowBlurOuter1"></feGaussianBlur>
            <feColorMatrix values="0 0 0 0 0   0 0 0 0 0   0 0 0 0 0  0 0 0 0.129189312 0" type="matrix" in="shadowBlurOuter1"></feColorMatrix>
        </filter>
    </defs>
    <g id="Мероприятия" stroke="none" stroke-width="1" fill="none" fill-rule="evenodd">
        <g id="3.Все-мероприятия-Copy-5" transform="translate(-282.000000, -40.000000)">
            <g id="Group-7">
                <g id="Actionbar3-2">
                    <g id="Rectangle-17">
                        <use fill="black" fill-opacity="1" filter="url(#filter-2)" xlink:href="#path-1"></use>
                        <use fill="#FFFFFF" fill-rule="evenodd" xlink:href="#path-1"></use>
                    </g>
                    <g id="ic_phone_android" transform="translate(282.000000, 40.000000)">
                        <g id="Icon-24px">
                            <polygon id="Shape" points="0 0 24 0 24 24 0 24"></polygon>
                            <path d="M7.42857143,2 C5.53142857,2 4,3.34 4,5 L4,19 C4,20.66 5.53142857,22 7.42857143,22 L16.5714286,22 C18.4685714,22 20,20.66 20,19 L20,5 C20,3.34 18.4685714,2 16.5714286,2 L7.42857143,2 Z M7.00247329,20 C6.44882258,20 6,19.5553691 6,18.9991283 L6,5.00087166 C6,4.4481055 6.45576096,4 7.00247329,4 L16.9975267,4 C17.5511774,4 18,4.44463086 18,5.00087166 L18,18.9991283 C18,19.5518945 17.544239,20 16.9975267,20 L7.00247329,20 Z" id="Shape" fill="#000000"></path>
                            <polygon id="Path" fill="#000000" points="13 11 13 8 11 8 11 11 8 11 8 13 11 13 11 16 13 16 13 13 16 13 16 11"></polygon>
                        </g>
                    </g>
                </g>
            </g>
        </g>
    </g>
</svg>