<?xml version="1.0" encoding="UTF-8" standalone="no"?>
<svg width="54px" height="60px" viewBox="0 0 54 60" version="1.1" xmlns="http://www.w3.org/2000/svg" xmlns:xlink="http://www.w3.org/1999/xlink">
    <!-- Generator: sketchtool 39.1 (31720) - http://www.bohemiancoding.com/sketch -->
    <title>A15B168A-F946-4BE4-99EE-5CA32EB81D4F</title>
    <desc>Created with sketchtool.</desc>
    <defs></defs>
    <g id="Page-1" stroke="none" stroke-width="1" fill="none" fill-rule="evenodd">
        <g id="3.Все-мероприятия" transform="translate(-153.000000, -254.000000)">
            <g id="Group-2" transform="translate(52.000000, 224.000000)">
                <g id="ic_today" transform="translate(92.000000, 24.000000)">
                    <g id="Icon-24px">
                        <polygon id="Shape" points="0 0 72 0 72 72 0 72"></polygon>
                        <path d="M57,12 L54,12 L54,6 L48,6 L48,12 L24,12 L24,6 L18,6 L18,12 L15,12 C11.67,12 9.03,14.7 9.03,18 L9,60 C9,63.3 11.67,66 15,66 L57,66 C60.3,66 63,63.3 63,60 L63,18 C63,14.7 60.3,12 57,12 L57,12 Z M57,60 L15,60 L15,27 L57,27 L57,60 L57,60 Z M21,33 L36,33 L36,48 L21,48 L21,33 Z" id="Shape" fill="#98A3AF"></path>
                    </g>
                </g>
            </g>
        </g>
    </g>
</svg>