<?xml version="1.0" encoding="UTF-8" standalone="no"?>
<svg width="18px" height="18px" viewBox="0 0 18 18" version="1.1" xmlns="http://www.w3.org/2000/svg" xmlns:xlink="http://www.w3.org/1999/xlink">
    <!-- Generator: sketchtool 39.1 (31720) - http://www.bohemiancoding.com/sketch -->
    <title>A38E2BA2-ECE5-4FA5-9BD6-99E9D3BDDB08</title>
    <desc>Created with sketchtool.</desc>
    <defs></defs>
    <g id="Page-1" stroke="none" stroke-width="1" fill="none" fill-rule="evenodd">
        <g id="Новая-покупк---все-заполнено" transform="translate(-100.000000, -125.000000)">
            <g id="text-field" transform="translate(0.000000, 80.000000)">
                <g id="Group-4" transform="translate(16.000000, 16.000000)">
                    <g id="ic_cancel" transform="translate(83.000000, 28.000000)">
                        <polygon id="Bounds" points="0 0 20 0 20 20 0 20"></polygon>
                        <path d="M10,1.66666667 C5.39166667,1.66666667 1.66666667,5.39166667 1.66666667,10 C1.66666667,14.6083333 5.39166667,18.3333333 10,18.3333333 C14.6083333,18.3333333 18.3333333,14.6083333 18.3333333,10 C18.3333333,5.39166667 14.6083333,1.66666667 10,1.66666667 L10,1.66666667 Z M14.1666667,12.9916667 L12.9916667,14.1666667 L10,11.175 L7.00833333,14.1666667 L5.83333333,12.9916667 L8.825,10 L5.83333333,7.00833333 L7.00833333,5.83333333 L10,8.825 L12.9916667,5.83333333 L14.1666667,7.00833333 L11.175,10 L14.1666667,12.9916667 L14.1666667,12.9916667 Z" id="Shape" fill-opacity="0.332823822" fill="#000000"></path>
                    </g>
                </g>
            </g>
        </g>
    </g>
</svg>