<?xml version="1.0" encoding="UTF-8" standalone="no"?>
<svg width="4px" height="16px" viewBox="0 0 4 16" version="1.1" xmlns="http://www.w3.org/2000/svg" xmlns:xlink="http://www.w3.org/1999/xlink">
    <!-- Generator: sketchtool 39.1 (31720) - http://www.bohemiancoding.com/sketch -->
    <title>A6066475-EAAF-4B4A-B39B-26D8B5168E43</title>
    <desc>Created with sketchtool.</desc>
    <defs></defs>
    <g id="Page-1" stroke="none" stroke-width="1" fill="none" fill-rule="evenodd">
        <g id="Все-мероприятия-Copy-14" transform="translate(-335.000000, -44.000000)">
            <g id="Actionbar3-2">
                <g id="Group-4">
                    <g id="Icon-24px" transform="translate(330.000000, 40.000000)">
                        <polygon id="Shape" points="0 0 14 0 14 24 0 24"></polygon>
                        <path d="M7,8 C8.1,8 9,7.1 9,6 C9,4.9 8.1,4 7,4 C5.9,4 5,4.9 5,6 C5,7.1 5.9,8 7,8 L7,8 Z M7,10 C5.9,10 5,10.9 5,12 C5,13.1 5.9,14 7,14 C8.1,14 9,13.1 9,12 C9,10.9 8.1,10 7,10 L7,10 Z M7,16 C5.9,16 5,16.9 5,18 C5,19.1 5.9,20 7,20 C8.1,20 9,19.1 9,18 C9,16.9 8.1,16 7,16 L7,16 Z" id="Shape" fill="#000"></path>
                    </g>
                </g>
            </g>
        </g>
    </g>
</svg>
