<?xml version="1.0" encoding="UTF-8" standalone="no"?>
<svg width="61px" height="63px" viewBox="0 0 61 63" version="1.1" xmlns="http://www.w3.org/2000/svg" xmlns:xlink="http://www.w3.org/1999/xlink">
    <!-- Generator: sketchtool 39.1 (31720) - http://www.bohemiancoding.com/sketch -->
    <title>7E50A183-BB80-4BC0-95FC-C74E101ED33B</title>
    <desc>Created with sketchtool.</desc>
    <defs></defs>
    <g id="Page-1" stroke="none" stroke-width="1" fill="none" fill-rule="evenodd">
        <g id="4.Мероприятие---покупки-Copy" transform="translate(-150.000000, -253.000000)">
            <g id="Group-2" transform="translate(53.000000, 224.000000)">
                <g id="ic_add_shopping_cart" transform="translate(91.000000, 24.000000)">
                    <g id="Icon-24px">
                        <path d="M0,0 L72,0 L72,72 L0,72 L0,0 Z M54.93,18 L46.65,33 L54.93,18 Z" id="Shape"></path>
                        <path d="M36,29 L42,29 L42,20 L51,20 L51,14 L42,14 L42,5 L36,5 L36,14 L27,14 L27,20 L36,20 L36,29 L36,29 Z M24,56 C20.7,56 18.03,58.7 18.03,62 C18.03,65.3 20.7,68 24,68 C27.3,68 30,65.3 30,62 C30,58.7 27.3,56 24,56 L24,56 Z M54,56 C50.7,56 48.03,58.7 48.03,62 C48.03,65.3 50.7,68 54,68 C57.3,68 60,65.3 60,62 C60,58.7 57.3,56 54,56 L54,56 Z M24.51,46.25 L24.6,45.89 L27.3,41 L49.65,41 C51.9,41 53.88,39.77 54.9,37.91 L66.48,16.88 L61.26,14 L61.23,14 L57.93,20 L49.65,35 L28.59,35 L28.2,34.19 L21.48,20 L18.63,14 L15.81,8 L6,8 L6,14 L12,14 L22.8,36.77 L18.75,44.12 C18.27,44.96 18,45.95 18,47 C18,50.3 20.7,53 24,53 L60,53 L60,47 L25.26,47 C24.87,47 24.51,46.67 24.51,46.25 L24.51,46.25 Z" id="Shape" fill="#98A3AF"></path>
                    </g>
                </g>
            </g>
        </g>
    </g>
</svg>