<?xml version="1.0" encoding="UTF-8" standalone="no"?>
<svg width="24px" height="24px" viewBox="0 0 24 24" version="1.1" xmlns="http://www.w3.org/2000/svg" xmlns:xlink="http://www.w3.org/1999/xlink">
    <!-- Generator: sketchtool 39.1 (31720) - http://www.bohemiancoding.com/sketch -->
    <title>E697A471-87D4-4CEF-9538-E38E2E8FD63C</title>
    <desc>Created with sketchtool.</desc>
    <defs>
        <rect id="path-1" x="0" y="0" width="360" height="128"></rect>
        <filter x="-50%" y="-50%" width="200%" height="200%" filterUnits="objectBoundingBox" id="filter-2">
            <feOffset dx="0" dy="0" in="SourceAlpha" result="shadowOffsetOuter1"></feOffset>
            <feGaussianBlur stdDeviation="1" in="shadowOffsetOuter1" result="shadowBlurOuter1"></feGaussianBlur>
            <feColorMatrix values="0 0 0 0 0   0 0 0 0 0   0 0 0 0 0  0 0 0 0.2 0" type="matrix" in="shadowBlurOuter1"></feColorMatrix>
        </filter>
    </defs>
    <g id="Page-1" stroke="none" stroke-width="1" fill="none" fill-rule="evenodd">
        <g id="Мероприятие---баланс-Copy" transform="translate(-272.000000, -40.000000)">
            <g id="Group-7"></g>
            <g id="Actionbar3-2">
                <g id="Rectangle-17">
                    <use fill="black" fill-opacity="1" filter="url(#filter-2)" xlink:href="#path-1"></use>
                    <use fill="#FFFFFF" fill-rule="evenodd" xlink:href="#path-1"></use>
                </g>
                <g id="Group-4">
                    <rect id="Rectangle-17-Copy-8" x="0" y="0" width="360" height="80"></rect>
                    <g id="ic_person_add" transform="translate(272.000000, 40.000000)">
                        <g id="Icon-24px">
                            <polygon id="Shape" points="0 0 24 0 24 24 0 24"></polygon>
                            <path d="M15,12 C17.21,12 19,10.21 19,8 C19,5.79 17.21,4 15,4 C12.79,4 11,5.79 11,8 C11,10.21 12.79,12 15,12 L15,12 Z M6,10 L6,7 L4,7 L4,10 L1,10 L1,12 L4,12 L4,15 L6,15 L6,12 L9,12 L9,10 L6,10 L6,10 Z M15,14 C12.33,14 7,15.34 7,18 L7,20 L23,20 L23,18 C23,15.34 17.67,14 15,14 L15,14 Z" id="Shape" fill="#83919F"></path>
                        </g>
                    </g>
                </g>
            </g>
        </g>
    </g>
</svg>