<?xml version="1.0" encoding="UTF-8" standalone="no"?>
<svg width="18px" height="18px" viewBox="0 0 18 18" version="1.1" xmlns="http://www.w3.org/2000/svg" xmlns:xlink="http://www.w3.org/1999/xlink">
    <!-- Generator: sketchtool 39.1 (31720) - http://www.bohemiancoding.com/sketch -->
    <title>F7BAF1EE-7965-425E-AC42-3DCE4D9F26AC</title>
    <desc>Created with sketchtool.</desc>
    <defs></defs>
    <g id="Page-1" stroke="none" stroke-width="1" fill="none" fill-rule="evenodd">
        <g id="Все-мероприятия" transform="translate(-323.000000, -43.000000)">
            <g id="Group-7">
                <g id="Actionbar3-2">
                    <g id="ic_add_box" transform="translate(320.000000, 40.000000)">
                        <g id="Icon-24px">
                            <polygon id="Shape" points="0 0 24 0 24 24 0 24"></polygon>
                            <path d="M19,3 L5,3 C3.89,3 3,3.9 3,5 L3,19 C3,20.1 3.89,21 5,21 L19,21 C20.1,21 21,20.1 21,19 L21,5 C21,3.9 20.1,3 19,3 L19,3 Z M17,13 L13,13 L13,17 L11,17 L11,13 L7,13 L7,11 L11,11 L11,7 L13,7 L13,11 L17,11 L17,13 L17,13 Z" id="Shape" fill="#83919F"></path>
                        </g>
                        <g id="Icon-24px-Copy">
                            <path d="M19,3 L5,3 C3.89,3 3,3.9 3,5 L3,19 C3,20.1 3.89,21 5,21 L19,21 C20.1,21 21,20.1 21,19 L21,5 C21,3.9 20.1,3 19,3 L19,3 Z M17,13 L13,13 L13,17 L11,17 L11,13 L7,13 L7,11 L11,11 L11,7 L13,7 L13,11 L17,11 L17,13 L17,13 Z" id="Shape" fill="#83919F"></path>
                            <polygon id="Shape" points="0 0 24 0 24 24 0 24"></polygon>
                        </g>
                    </g>
                </g>
            </g>
        </g>
    </g>
</svg>