<svg width="61" height="63" viewBox="0 0 61 63" xmlns="http://www.w3.org/2000/svg"><g fill="none" fill-rule="evenodd"><path d="M-6-5h72v72H-6V-5zm54.93 18l-8.28 15 8.28-15z"/><path d="M30 24h6v-9h9V9h-9V0h-6v9h-9v6h9v9zM18 51c-3.3 0-5.97 2.7-5.97 6s2.67 6 5.97 6 6-2.7 6-6-2.7-6-6-6zm30 0c-3.3 0-5.97 2.7-5.97 6s2.67 6 5.97 6 6-2.7 6-6-2.7-6-6-6zm-29.49-9.75l.09-.36L21.3 36h22.35c2.25 0 4.23-1.23 5.25-3.09l11.58-21.03L55.26 9h-.03l-3.3 6-8.28 15H22.59l-.39-.81L15.48 15l-2.85-6-2.82-6H0v6h6l10.8 22.77-4.05 7.35c-.48.84-.75 1.83-.75 2.88 0 3.3 2.7 6 6 6h36v-6H19.26c-.39 0-.75-.33-.75-.75z" fill="#98A3AF"/></g></svg>
